<svg width="106" height="78" viewBox="0 0 106 78" fill="none" xmlns="http://www.w3.org/2000/svg">
<rect x="29" y="1" width="76" height="76" rx="13" fill="#FFDECC"/>
<rect x="29" y="1" width="76" height="76" rx="13" stroke="#262626" stroke-width="2"/>
<path d="M66.5747 25.9741C66.8459 25.8556 67.1543 25.8556 67.4255 25.9741C72.6938 28.276 77.6869 31.0898 82.3418 34.3527C82.6787 34.5888 82.849 34.9982 82.779 35.4036C82.709 35.8089 82.4112 36.1375 82.0147 36.2469C81.0444 36.5148 80.0824 36.8032 79.1292 37.1106C75.2602 38.3584 71.5358 39.9284 67.9876 41.7891L67.983 41.7915C67.8221 41.8759 67.6616 41.9609 67.5015 42.0464C67.1886 42.2136 66.8129 42.2136 66.5 42.0464C66.3384 41.96 66.1763 41.8742 66.0139 41.7891C64.2594 40.869 62.4618 40.0201 60.625 39.246V38.9291C60.625 38.743 60.7205 38.5779 60.8683 38.4883C63.0005 37.1966 65.2 36.0046 67.46 34.9191C67.989 34.665 68.2118 34.0302 67.9577 33.5013C67.7037 32.9723 67.0689 32.7495 66.54 33.0036C64.2177 34.119 61.9579 35.3437 59.7672 36.6709C59.1249 37.06 58.6931 37.6968 58.5511 38.4103C57.34 37.9444 56.1129 37.5105 54.8709 37.11C53.9177 36.8026 52.9558 36.5147 51.9855 36.2469C51.589 36.1375 51.2912 35.8089 51.2212 35.4035C51.1512 34.9982 51.3215 34.5888 51.6584 34.3527C56.3133 31.0898 61.3064 28.276 66.5747 25.9741Z" fill="#262626"/>
<path d="M68.5029 43.9207C71.958 42.0746 75.588 40.5139 79.3616 39.27C79.5517 41.2743 79.6732 43.2985 79.7235 45.3402C79.7343 45.7783 79.475 46.1781 79.0706 46.3469C75.0315 48.0332 71.1896 50.0982 67.5892 52.4975C67.2324 52.7353 66.7676 52.7353 66.4108 52.4975C62.8105 50.0982 58.9685 48.0332 54.9294 46.3469C54.5251 46.1781 54.2658 45.7783 54.2766 45.3402C54.3269 43.2984 54.4483 41.274 54.6386 39.2695C55.9433 39.6996 57.2309 40.1675 58.5 40.672V42.4718C57.8648 42.8392 57.4375 43.5259 57.4375 44.3125C57.4375 45.0142 57.7776 45.6364 58.302 46.0234C58.1752 46.5626 57.9875 47.0903 57.7389 47.5956C58.3802 47.8983 59.0161 48.2107 59.6462 48.5326C60.0051 47.8027 60.2653 47.0366 60.4269 46.2543C61.1697 45.9232 61.6875 45.1783 61.6875 44.3125C61.6875 43.5259 61.2602 42.8392 60.625 42.4718V41.5583C62.2845 42.2834 63.91 43.0719 65.4986 43.9207C66.4372 44.4222 67.5643 44.4222 68.5029 43.9207Z" fill="#262626"/>
<path d="M56.3215 49.5716C56.9153 48.9778 57.3879 48.309 57.7389 47.5956C58.3802 47.8983 59.0161 48.2107 59.6462 48.5326C59.1949 49.4504 58.5873 50.3109 57.8241 51.0742C57.4092 51.4891 56.7364 51.4891 56.3215 51.0742C55.9066 50.6592 55.9066 49.9865 56.3215 49.5716Z" fill="#262626"/>
</svg>
